<svg xmlns="http://www.w3.org/2000/svg" width="32" height="32" fill="none" viewBox="0 0 32 32"><rect width="32" height="32" fill="#f3f5f9" rx="4"/><path fill="#1e152a" d="m14.02 8.58-.94.55a.1.1 0 0 0-.05.08v6.21q0 .05.05.03l.94-.54a.1.1 0 0 0 .05-.09v-6.2q0-.06-.05-.04M18.48 6l-3.46 2a.1.1 0 0 0-.05.1v1.08q0 .04.05.03l3.46-2a.1.1 0 0 0 .05-.09V6.04q0-.06-.05-.03M18.48 8.57l-3.46 2a.1.1 0 0 0-.05.09v1.08q0 .05.05.03l3.46-2a.1.1 0 0 0 .05-.08v-1.1q0-.04-.05-.02M18.48 11.13l-3.46 2a.1.1 0 0 0-.05.09v1.09q0 .05.05.02l3.46-2a.1.1 0 0 0 .05-.08v-1.09q0-.04-.05-.03M23.42 18V16.9a.1.1 0 0 0-.05-.08l-5.38-3.11q-.05-.02-.05.03v1.08q0 .06.05.09l5.38 3.1q.05.02.05-.02M23.42 23.15v-4a.1.1 0 0 0-.05-.09l-.94-.54q-.05-.02-.05.03v4q0 .05.05.08l.94.54q.05.02.05-.02M21.2 21.86v-4a.1.1 0 0 0-.05-.08l-.94-.54q-.05-.02-.05.03v4q0 .04.05.08l.94.54q.05.02.05-.03M18.98 20.58v-4a.1.1 0 0 0-.05-.08l-.94-.55q-.05-.01-.05.03v4q0 .05.05.09l.94.54q.05.02.05-.03"/><path fill="#1e152a" d="m21.44 10.58-.95-.54a.1.1 0 0 0-.1 0l-5.37 3.1q-.04.04 0 .06l.94.55a.1.1 0 0 0 .1 0l5.38-3.11q.03-.03 0-.06M25.9 13.16l-3.47-2a.1.1 0 0 0-.1 0l-.94.54q-.03.02 0 .06l3.47 2a.1.1 0 0 0 .1 0l.94-.55q.03-.02 0-.05M23.67 14.44l-3.46-2a.1.1 0 0 0-.1 0l-.94.54q-.03.03 0 .06l3.47 2a.1.1 0 0 0 .1 0l.93-.55q.04-.03 0-.05M21.45 15.72l-3.46-2a.1.1 0 0 0-.1 0l-.94.54q-.05.03 0 .06l3.46 2a.1.1 0 0 0 .1 0l.94-.54q.04-.03 0-.06M17.98 23.42l.94-.55a.1.1 0 0 0 .05-.08v-6.21q0-.05-.05-.03l-.94.54a.1.1 0 0 0-.05.09v6.2q0 .06.05.04M13.52 26l3.46-2a.1.1 0 0 0 .05-.1v-1.08q0-.05-.05-.03l-3.46 2a.1.1 0 0 0-.05.09v1.08q0 .06.05.03M13.52 23.43l3.46-2a.1.1 0 0 0 .05-.09v-1.08q0-.05-.05-.03l-3.46 2a.1.1 0 0 0-.05.08v1.1q0 .04.05.02M13.52 20.86l3.46-2a.1.1 0 0 0 .05-.08v-1.09q0-.05-.05-.02l-3.46 2a.1.1 0 0 0-.05.08v1.09q0 .05.05.02"/><path fill="#1e152a" d="m10.57 21.44.94.54a.1.1 0 0 0 .1 0l5.37-3.1q.04-.04 0-.06l-.94-.55a.1.1 0 0 0-.1 0l-5.37 3.1q-.04.03 0 .07M6.1 18.86l3.47 2a.1.1 0 0 0 .1 0l.94-.54q.03-.03 0-.06l-3.47-2a.1.1 0 0 0-.1 0l-.93.55q-.05.02 0 .05M8.33 17.58l3.46 2a.1.1 0 0 0 .1 0l.94-.54q.04-.03 0-.06l-3.46-2a.1.1 0 0 0-.1 0l-.94.54q-.04.04 0 .06M10.55 16.3l3.46 2a.1.1 0 0 0 .1 0l.94-.54q.04-.04 0-.06l-3.46-2a.1.1 0 0 0-.1 0l-.94.54q-.04.03 0 .06"/><path fill="#1e152a" d="M8.6 14.02v1.09q0 .05.04.08l5.38 3.1q.05.03.05-.02v-1.09a.1.1 0 0 0-.05-.08L8.64 14q-.05-.03-.05.02M8.6 8.87v4q0 .05.04.09l.94.54q.05.02.05-.03v-4a.1.1 0 0 0-.05-.08l-.94-.55q-.05-.02-.05.03M10.81 10.15v4q0 .05.05.09l.94.54q.05.02.05-.03v-4a.1.1 0 0 0-.05-.08l-.94-.54q-.05-.02-.05.02M13.03 11.44v4q0 .05.05.08l.94.54q.05.02.05-.02v-4a.1.1 0 0 0-.05-.09l-.94-.54q-.05-.02-.05.03"/></svg>
