<svg xmlns="http://www.w3.org/2000/svg" width="32" height="32" fill="none" viewBox="0 0 32 32"><g clip-path="url(#soneium-mainnet-a)"><rect width="32" height="32" fill="#00d2ff" rx="4"/><path fill="#000" d="M32 0H0v32h32z"/><path fill="#fff" d="M17.28 21.52a6.13 6.13 0 0 1-7.43-5 5.7 5.7 0 0 1 .81-3.76q.7-1.1 1.64-2L18 5.2a11 11 0 0 0-7.95 1.47 10.7 10.7 0 0 0-4.73 6.46 10.6 10.6 0 0 0 1.1 7.9A10.9 10.9 0 0 0 12.74 26z"/><path fill="#fff" d="M14.72 10.49a6.1 6.1 0 0 1 5.67 1.57 5.7 5.7 0 0 1 .94 7.17q-.7 1.1-1.64 2C17.69 23.2 14 26.8 14 26.8c2.74.54 5.59.02 7.95-1.45a10.6 10.6 0 0 0 3.63-14.37A10.8 10.8 0 0 0 19.25 6z"/></g><defs><clipPath id="soneium-mainnet-a"><rect width="32" height="32" fill="#fff" rx="4"/></clipPath></defs></svg>
